# xmcd CD database file
#
# Track frame offsets:
#	150
#	20034
#	41250
#	60264
#	89336
#	122958
#	145660
#
# Disc length: 2158 seconds
#
# Revision: 0
# Processed by: cddbd v1.5.2PL0 Copyright (c) Steve Scherf et al.
# Submitted via: CDex 1.70beta2
#
DISCID=55086c07
DTITLE=KC Roberts and the Live Revolution - EP 2007
DYEAR=2007
DGENRE=Jazz
TTITLE0=Revival S**t
TTITLE1=The way that you are
TTITLE2=Sister soul
TTITLE3=Last word
TTITLE4=Play my life
TTITLE5=I just wanna know
TTITLE6=Maria
EXTD=YEAR: 2007
EXTT0=
EXTT1=
EXTT2=
EXTT3=
EXTT4=
EXTT5=
EXTT6=
PLAYORDER=
